STARTFONT   2.1
COMMENT
COMMENT Copyright: "Leon Marrick, 2005.  Freeware.  Share and enjoy!"
COMMENT
FONT -angband-10x14xb-bold-r-normal--14-110-96-96-c-100-iso8859-1
SIZE  11  96   96
FONTBOUNDINGBOX 10  14  0  -2
STARTPROPERTIES  4
FONT_ASCENT 12
FONT_DESCENT 2
CAP_HEIGHT 12
DEFAULT_CHAR 8213
ENDPROPERTIES
CHARS  256
STARTCHAR 0  
ENCODING 0
SWIDTH    10000    0 
DWIDTH    10    0 
BBX  10  14  0   -2
BITMAP
0000
0000
0000
0000
0000
0000
0000
0000
0000
0000
0000
0000
0000
0000
ENDCHAR
STARTCHAR 1  
ENCODING 1
SWIDTH    10000    0 
DWIDTH    10    0 
BBX  10  14  0   -2
BITMAP
FFC0
FFC0
FFC0
FFC0
FFC0
FFC0
FFC0
FFC0
FFC0
FFC0
FFC0
FFC0
FFC0
FFC0
ENDCHAR
STARTCHAR 2  
ENCODING 2
SWIDTH    10000    0 
DWIDTH    10    0 
BBX  10  14  0   -2
BITMAP
DDC0
F740
7FC0
F6C0
BF80
EDC0
FFC0
7B40
DFC0
FEC0
77C0
DF40
FDC0
EF80
ENDCHAR
STARTCHAR 3  
ENCODING 3
SWIDTH    10000    0 
DWIDTH    10    0 
BBX  10  14  0   -2
BITMAP
5540
BA80
6D40
DFC0
5540
FA80
5540
BB80
5540
BE80
6940
DFC0
5540
FAC0
ENDCHAR
STARTCHAR 4  
ENCODING 4
SWIDTH    10000    0 
DWIDTH    10    0 
BBX  10  14  0   -2
BITMAP
2200
0880
8000
0900
4040
1200
0000
8480
2000
0100
8800
2080
0200
1040
ENDCHAR
STARTCHAR 5  
ENCODING 5
SWIDTH    10000    0 
DWIDTH    10    0 
BBX  10  14  0   -2
BITMAP
1000
8000
0800
0100
0000
4000
0200
0040
2000
0000
0100
8800
0000
0080
ENDCHAR
STARTCHAR 6  
ENCODING 6
SWIDTH    10000    0 
DWIDTH    10    0 
BBX  10  14  0   -2
BITMAP
0000
2000
0000
0080
0000
0800
0000
0000
4000
0100
0000
1000
0000
0040
ENDCHAR
STARTCHAR 7  
ENCODING 7
SWIDTH    10000    0 
DWIDTH    10    0 
BBX  10  14  0   -2
BITMAP
0000
0000
0000
0000
0000
0000
0000
0800
0000
0000
0000
0000
0000
0000
ENDCHAR
STARTCHAR 8  
ENCODING 8
SWIDTH    10000    0 
DWIDTH    10    0 
BBX  10  14  0   -2
BITMAP
0000
0000
0000
0000
0000
0000
0C00
0C00
0000
0000
0000
0000
0000
0000
ENDCHAR
STARTCHAR 9  
ENCODING 9
SWIDTH    10000    0 
DWIDTH    10    0 
BBX  10  14  0   -2
BITMAP
0000
0000
0000
0000
1C00
3E00
3E00
3E00
1C00
0000
0000
0000
0000
0000
ENDCHAR
STARTCHAR 10  
ENCODING 10
SWIDTH    10000    0 
DWIDTH    10    0 
BBX  10  14  0   -2
BITMAP
0000
0000
0000
0000
1C00
3E00
7F00
7F00
7F00
3E00
1C00
0000
0000
0000
ENDCHAR
STARTCHAR 11  
ENCODING 11
SWIDTH    10000    0 
DWIDTH    10    0 
BBX  10  14  0   -2
BITMAP
0000
0000
0000
0000
0000
0300
1F80
7AC0
D540
AAC0
7FC0
0000
0000
0000
ENDCHAR
STARTCHAR 12  
ENCODING 12
SWIDTH    10000    0 
DWIDTH    10    0 
BBX  10  14  0   -2
BITMAP
0000
0000
0000
0000
3F00
5580
FFC0
5580
2B00
1600
0C00
0000
0000
0000
ENDCHAR
STARTCHAR 13  
ENCODING 13
SWIDTH    10000    0 
DWIDTH    10    0 
BBX  10  14  0   -2
BITMAP
1E00
6B80
5580
AAC0
D540
AAC0
D540
FFC0
AAC0
D540
AAC0
D540
AAC0
FFC0
ENDCHAR
STARTCHAR 14  
ENCODING 14
SWIDTH    10000    0 
DWIDTH    10    0 
BBX  10  14  0   -2
BITMAP
1E00
6180
4080
8040
8040
8040
8040
8040
8040
8040
8040
8040
8040
FFC0
ENDCHAR
STARTCHAR 15  
ENCODING 15
SWIDTH    10000    0 
DWIDTH    10    0 
BBX  10  14  0   -2
BITMAP
0C00
2100
4080
0000
8040
0000
8040
0000
8040
0000
8040
0000
8040
DEC0
ENDCHAR
STARTCHAR 16  
ENCODING 16
SWIDTH    10000    0 
DWIDTH    10    0 
BBX  10  14  0   -2
BITMAP
0000
5280
3F00
1600
0C00
1600
0C00
1600
0E00
1600
2D00
3F00
1E00
0000
ENDCHAR
STARTCHAR 17  
ENCODING 17
SWIDTH    10000    0 
DWIDTH    10    0 
BBX  10  14  0   -2
BITMAP
0000
0000
0000
0000
0500
0A00
0000
0000
0000
0000
2800
5000
0000
0000
ENDCHAR
STARTCHAR 18  
ENCODING 18
SWIDTH    10000    0 
DWIDTH    10    0 
BBX  10  14  0   -2
BITMAP
0000
1E00
3500
2B00
3500
2B00
1E00
0C00
0C00
0C00
0C00
0C00
0C00
0000
ENDCHAR
STARTCHAR 19  
ENCODING 19
SWIDTH    10000    0 
DWIDTH    10    0 
BBX  10  14  0   -2
BITMAP
0000
0000
1000
1000
0400
4400
4900
2A00
3200
5D00
6A80
D580
FA80
0000
ENDCHAR
STARTCHAR 20  
ENCODING 20
SWIDTH    10000    0 
DWIDTH    10    0 
BBX  10  14  0   -2
BITMAP
0000
2200
1400
8080
4100
0000
C000
0180
0000
4100
8080
1400
2200
0000
ENDCHAR
STARTCHAR 21  
ENCODING 21
SWIDTH    10000    0 
DWIDTH    10    0 
BBX  10  14  0   -2
BITMAP
0000
0000
0000
0000
0000
0000
0000
0000
0000
0000
0000
0000
0000
0000
ENDCHAR
STARTCHAR 22  
ENCODING 22
SWIDTH    10000    0 
DWIDTH    10    0 
BBX  10  14  0   -2
BITMAP
0000
0000
0000
0000
0000
0000
0000
0000
0000
0000
0000
0000
0000
0000
ENDCHAR
STARTCHAR 23  
ENCODING 23
SWIDTH    10000    0 
DWIDTH    10    0 
BBX  10  14  0   -2
BITMAP
0000
0000
0000
0000
0000
0000
0000
0000
0000
0000
0000
0000
0000
0000
ENDCHAR
STARTCHAR 24  
ENCODING 24
SWIDTH    10000    0 
DWIDTH    10    0 
BBX  10  14  0   -2
BITMAP
0000
0000
0000
0000
0000
0000
0000
0000
0000
0000
0000
0000
0000
0000
ENDCHAR
STARTCHAR 25  
ENCODING 25
SWIDTH    10000    0 
DWIDTH    10    0 
BBX  10  14  0   -2
BITMAP
0000
0000
0000
0000
0000
0000
0000
0000
0000
0000
0000
0000
0000
0000
ENDCHAR
STARTCHAR 26  
ENCODING 26
SWIDTH    10000    0 
DWIDTH    10    0 
BBX  10  14  0   -2
BITMAP
0000
0000
0000
0000
0000
0000
0000
0000
0000
0000
0000
0000
0000
0000
ENDCHAR
STARTCHAR 27  
ENCODING 27
SWIDTH    10000    0 
DWIDTH    10    0 
BBX  10  14  0   -2
BITMAP
0000
0000
0000
0000
0000
0000
0000
0000
0000
0000
0000
0000
0000
0000
ENDCHAR
STARTCHAR 28  
ENCODING 28
SWIDTH    10000    0 
DWIDTH    10    0 
BBX  10  14  0   -2
BITMAP
0000
0000
0000
0000
0000
0000
0000
0000
0000
0000
0000
0000
0000
0000
ENDCHAR
STARTCHAR 29  
ENCODING 29
SWIDTH    10000    0 
DWIDTH    10    0 
BBX  10  14  0   -2
BITMAP
0000
0000
0000
0000
0000
0000
0000
0000
0000
0000
0000
0000
0000
0000
ENDCHAR
STARTCHAR 30  
ENCODING 30
SWIDTH    10000    0 
DWIDTH    10    0 
BBX  10  14  0   -2
BITMAP
0000
0000
0000
0000
0000
0000
0000
0000
0000
0000
0000
0000
0000
0000
ENDCHAR
STARTCHAR 31  
ENCODING 31
SWIDTH    10000    0 
DWIDTH    10    0 
BBX  10  14  0   -2
BITMAP
0000
0000
0000
0000
0000
0000
0000
0000
0000
0000
0000
0000
0000
0000
ENDCHAR
STARTCHAR 32  
ENCODING 32
SWIDTH    10000    0 
DWIDTH    10    0 
BBX  10  14  0   -2
BITMAP
0000
0000
0000
0000
0000
0000
0000
0000
0000
0000
0000
0000
0000
0000
ENDCHAR
STARTCHAR 33  
ENCODING 33
SWIDTH    10000    0 
DWIDTH    10    0 
BBX  10  14  0   -2
BITMAP
0000
0C00
1E00
1E00
1E00
0C00
0C00
0C00
0000
0000
0C00
0C00
0000
0000
ENDCHAR
STARTCHAR 34  
ENCODING 34
SWIDTH    10000    0 
DWIDTH    10    0 
BBX  10  14  0   -2
BITMAP
0000
3300
3300
3300
0000
0000
0000
0000
0000
0000
0000
0000
0000
0000
ENDCHAR
STARTCHAR 35  
ENCODING 35
SWIDTH    10000    0 
DWIDTH    10    0 
BBX  10  14  0   -2
BITMAP
0000
0000
3300
3300
7F80
7F80
3300
3300
3300
7F80
7F80
3300
3300
0000
ENDCHAR
STARTCHAR 36  
ENCODING 36
SWIDTH    10000    0 
DWIDTH    10    0 
BBX  10  14  0   -2
BITMAP
0000
0800
3E00
6B00
6800
7800
3E00
0F00
0B00
6B00
3E00
0800
0000
0000
ENDCHAR
STARTCHAR 37  
ENCODING 37
SWIDTH    10000    0 
DWIDTH    10    0 
BBX  10  14  0   -2
BITMAP
0000
0000
3180
6B00
5B00
3600
0C00
0C00
1B00
3680
3580
6300
0000
0000
ENDCHAR
STARTCHAR 38  
ENCODING 38
SWIDTH    10000    0 
DWIDTH    10    0 
BBX  10  14  0   -2
BITMAP
0000
0000
3C00
6600
6600
7600
3C00
6C00
6680
6300
6700
3D80
0000
0000
ENDCHAR
STARTCHAR 39  
ENCODING 39
SWIDTH    10000    0 
DWIDTH    10    0 
BBX  10  14  0   -2
BITMAP
0000
0000
1C00
1C00
0C00
1800
0000
0000
0000
0000
0000
0000
0000
0000
ENDCHAR
STARTCHAR 40  
ENCODING 40
SWIDTH    10000    0 
DWIDTH    10    0 
BBX  10  14  0   -2
BITMAP
0000
0600
0C00
1800
1800
3000
3000
3000
3000
1800
1800
0C00
0600
0000
ENDCHAR
STARTCHAR 41  
ENCODING 41
SWIDTH    10000    0 
DWIDTH    10    0 
BBX  10  14  0   -2
BITMAP
0000
3000
1800
0C00
0C00
0600
0600
0600
0600
0C00
0C00
1800
3000
0000
ENDCHAR
STARTCHAR 42  
ENCODING 42
SWIDTH    10000    0 
DWIDTH    10    0 
BBX  10  14  0   -2
BITMAP
0000
0000
0000
0000
0000
3600
1C00
7F00
1C00
3600
0000
0000
0000
0000
ENDCHAR
STARTCHAR 43  
ENCODING 43
SWIDTH    10000    0 
DWIDTH    10    0 
BBX  10  14  0   -2
BITMAP
0000
0000
0000
0000
0C00
0C00
0C00
7F80
0C00
0C00
0C00
0000
0000
0000
ENDCHAR
STARTCHAR 44  
ENCODING 44
SWIDTH    10000    0 
DWIDTH    10    0 
BBX  10  14  0   -2
BITMAP
0000
0000
0000
0000
0000
0000
0000
0000
0000
0000
1C00
1C00
0C00
1800
ENDCHAR
STARTCHAR 45  
ENCODING 45
SWIDTH    10000    0 
DWIDTH    10    0 
BBX  10  14  0   -2
BITMAP
0000
0000
0000
0000
0000
0000
0000
7F00
0000
0000
0000
0000
0000
0000
ENDCHAR
STARTCHAR 46  
ENCODING 46
SWIDTH    10000    0 
DWIDTH    10    0 
BBX  10  14  0   -2
BITMAP
0000
0000
0000
0000
0000
0000
0000
0000
0000
0000
1C00
1C00
0000
0000
ENDCHAR
STARTCHAR 47  
ENCODING 47
SWIDTH    10000    0 
DWIDTH    10    0 
BBX  10  14  0   -2
BITMAP
0000
0000
0180
0300
0300
0600
0C00
0C00
1800
3000
3000
6000
0000
0000
ENDCHAR
STARTCHAR 48  
ENCODING 48
SWIDTH    10000    0 
DWIDTH    10    0 
BBX  10  14  0   -2
BITMAP
0000
0000
3F00
6180
6180
6180
6180
6180
6180
6180
6180
3F00
0000
0000
ENDCHAR
STARTCHAR 49  
ENCODING 49
SWIDTH    10000    0 
DWIDTH    10    0 
BBX  10  14  0   -2
BITMAP
0000
0000
0C00
1C00
3C00
0C00
0C00
0C00
0C00
0C00
0C00
3F00
0000
0000
ENDCHAR
STARTCHAR 50  
ENCODING 50
SWIDTH    10000    0 
DWIDTH    10    0 
BBX  10  14  0   -2
BITMAP
0000
0000
3F00
6180
6180
0180
0300
0600
1C00
3000
6000
7F80
0000
0000
ENDCHAR
STARTCHAR 51  
ENCODING 51
SWIDTH    10000    0 
DWIDTH    10    0 
BBX  10  14  0   -2
BITMAP
0000
0000
7F80
0180
0300
0600
0F00
0180
0180
0180
6180
3F00
0000
0000
ENDCHAR
STARTCHAR 52  
ENCODING 52
SWIDTH    10000    0 
DWIDTH    10    0 
BBX  10  14  0   -2
BITMAP
0000
0000
0300
0700
0F00
1B00
3300
6300
7F80
0300
0300
0300
0000
0000
ENDCHAR
STARTCHAR 53  
ENCODING 53
SWIDTH    10000    0 
DWIDTH    10    0 
BBX  10  14  0   -2
BITMAP
0000
0000
7F80
6000
6000
7F00
7180
0180
0180
0180
6180
3F00
0000
0000
ENDCHAR
STARTCHAR 54  
ENCODING 54
SWIDTH    10000    0 
DWIDTH    10    0 
BBX  10  14  0   -2
BITMAP
0000
0000
1F00
3180
6000
6000
7F00
7180
6180
6180
6180
3F00
0000
0000
ENDCHAR
STARTCHAR 55  
ENCODING 55
SWIDTH    10000    0 
DWIDTH    10    0 
BBX  10  14  0   -2
BITMAP
0000
0000
7F80
0180
0180
0300
0600
0C00
1800
1800
3000
3000
0000
0000
ENDCHAR
STARTCHAR 56  
ENCODING 56
SWIDTH    10000    0 
DWIDTH    10    0 
BBX  10  14  0   -2
BITMAP
0000
0000
3F00
6180
6180
6180
3F00
6180
6180
6180
6180
3F00
0000
0000
ENDCHAR
STARTCHAR 57  
ENCODING 57
SWIDTH    10000    0 
DWIDTH    10    0 
BBX  10  14  0   -2
BITMAP
0000
0000
3F00
6180
6180
6180
6380
3F80
0180
0180
6300
3E00
0000
0000
ENDCHAR
STARTCHAR 58  
ENCODING 58
SWIDTH    10000    0 
DWIDTH    10    0 
BBX  10  14  0   -2
BITMAP
0000
0000
0000
0000
0000
0000
1C00
1C00
0000
0000
1C00
1C00
0000
0000
ENDCHAR
STARTCHAR 59  
ENCODING 59
SWIDTH    10000    0 
DWIDTH    10    0 
BBX  10  14  0   -2
BITMAP
0000
0000
0000
0000
0000
0000
1C00
1C00
0000
0000
1C00
1C00
0C00
1800
ENDCHAR
STARTCHAR 60  
ENCODING 60
SWIDTH    10000    0 
DWIDTH    10    0 
BBX  10  14  0   -2
BITMAP
0000
0000
0300
0600
0C00
1800
3000
3000
1800
0C00
0600
0300
0000
0000
ENDCHAR
STARTCHAR 61  
ENCODING 61
SWIDTH    10000    0 
DWIDTH    10    0 
BBX  10  14  0   -2
BITMAP
0000
0000
0000
0000
0000
0000
7F00
0000
0000
7F00
0000
0000
0000
0000
ENDCHAR
STARTCHAR 62  
ENCODING 62
SWIDTH    10000    0 
DWIDTH    10    0 
BBX  10  14  0   -2
BITMAP
0000
0000
3000
1800
0C00
0600
0300
0300
0600
0C00
1800
3000
0000
0000
ENDCHAR
STARTCHAR 63  
ENCODING 63
SWIDTH    10000    0 
DWIDTH    10    0 
BBX  10  14  0   -2
BITMAP
0000
0000
3F00
6180
6180
0180
0300
0600
0C00
0C00
0000
0C00
0000
0000
ENDCHAR
STARTCHAR 64  
ENCODING 64
SWIDTH    10000    0 
DWIDTH    10    0 
BBX  10  14  0   -2
BITMAP
0000
0000
1E00
6100
5A80
B680
B680
B680
B700
5E00
6180
1E00
0000
0000
ENDCHAR
STARTCHAR 65  
ENCODING 65
SWIDTH    10000    0 
DWIDTH    10    0 
BBX  10  14  0   -2
BITMAP
0000
0000
0C00
1E00
3300
6180
6180
6180
7F80
6180
6180
6180
0000
0000
ENDCHAR
STARTCHAR 66  
ENCODING 66
SWIDTH    10000    0 
DWIDTH    10    0 
BBX  10  14  0   -2
BITMAP
0000
0000
7F00
6180
6180
6180
7F00
6180
6180
6180
6180
7F00
0000
0000
ENDCHAR
STARTCHAR 67  
ENCODING 67
SWIDTH    10000    0 
DWIDTH    10    0 
BBX  10  14  0   -2
BITMAP
0000
0000
1F00
3180
6000
6000
6000
6000
6000
6000
3180
1F00
0000
0000
ENDCHAR
STARTCHAR 68  
ENCODING 68
SWIDTH    10000    0 
DWIDTH    10    0 
BBX  10  14  0   -2
BITMAP
0000
0000
7E00
6300
6180
6180
6180
6180
6180
6180
6300
7E00
0000
0000
ENDCHAR
STARTCHAR 69  
ENCODING 69
SWIDTH    10000    0 
DWIDTH    10    0 
BBX  10  14  0   -2
BITMAP
0000
0000
7F80
6000
6000
6000
7E00
6000
6000
6000
6000
7F80
0000
0000
ENDCHAR
STARTCHAR 70  
ENCODING 70
SWIDTH    10000    0 
DWIDTH    10    0 
BBX  10  14  0   -2
BITMAP
0000
0000
7F80
6000
6000
6000
7E00
6000
6000
6000
6000
6000
0000
0000
ENDCHAR
STARTCHAR 71  
ENCODING 71
SWIDTH    10000    0 
DWIDTH    10    0 
BBX  10  14  0   -2
BITMAP
0000
0000
1F00
3180
6000
6000
6000
6780
6180
6180
3300
1E00
0000
0000
ENDCHAR
STARTCHAR 72  
ENCODING 72
SWIDTH    10000    0 
DWIDTH    10    0 
BBX  10  14  0   -2
BITMAP
0000
0000
6180
6180
6180
6180
7F80
6180
6180
6180
6180
6180
0000
0000
ENDCHAR
STARTCHAR 73  
ENCODING 73
SWIDTH    10000    0 
DWIDTH    10    0 
BBX  10  14  0   -2
BITMAP
0000
0000
1E00
0C00
0C00
0C00
0C00
0C00
0C00
0C00
0C00
1E00
0000
0000
ENDCHAR
STARTCHAR 74  
ENCODING 74
SWIDTH    10000    0 
DWIDTH    10    0 
BBX  10  14  0   -2
BITMAP
0000
0000
0F80
0300
0300
0300
0300
0300
0300
0300
6300
3E00
0000
0000
ENDCHAR
STARTCHAR 75  
ENCODING 75
SWIDTH    10000    0 
DWIDTH    10    0 
BBX  10  14  0   -2
BITMAP
0000
0000
6180
6300
6600
6C00
7800
7800
6C00
6600
6300
6180
0000
0000
ENDCHAR
STARTCHAR 76  
ENCODING 76
SWIDTH    10000    0 
DWIDTH    10    0 
BBX  10  14  0   -2
BITMAP
0000
0000
6000
6000
6000
6000
6000
6000
6000
6000
6000
7F80
0000
0000
ENDCHAR
STARTCHAR 77  
ENCODING 77
SWIDTH    10000    0 
DWIDTH    10    0 
BBX  10  14  0   -2
BITMAP
0000
0000
6180
6180
7380
7F80
6D80
6D80
6180
6180
6180
6180
0000
0000
ENDCHAR
STARTCHAR 78  
ENCODING 78
SWIDTH    10000    0 
DWIDTH    10    0 
BBX  10  14  0   -2
BITMAP
0000
0000
6180
6180
7180
7980
6D80
6780
6380
6180
6180
6180
0000
0000
ENDCHAR
STARTCHAR 79  
ENCODING 79
SWIDTH    10000    0 
DWIDTH    10    0 
BBX  10  14  0   -2
BITMAP
0000
0000
1E00
3300
6180
6180
6180
6180
6180
6180
3300
1E00
0000
0000
ENDCHAR
STARTCHAR 80  
ENCODING 80
SWIDTH    10000    0 
DWIDTH    10    0 
BBX  10  14  0   -2
BITMAP
0000
0000
7F00
6180
6180
6180
7F00
6000
6000
6000
6000
6000
0000
0000
ENDCHAR
STARTCHAR 81  
ENCODING 81
SWIDTH    10000    0 
DWIDTH    10    0 
BBX  10  14  0   -2
BITMAP
0000
0000
1E00
3300
6180
6180
6180
6180
6180
6D80
3700
1F00
0180
0000
ENDCHAR
STARTCHAR 82  
ENCODING 82
SWIDTH    10000    0 
DWIDTH    10    0 
BBX  10  14  0   -2
BITMAP
0000
0000
7F00
6180
6180
6180
7F00
6C00
6600
6300
6180
6180
0000
0000
ENDCHAR
STARTCHAR 83  
ENCODING 83
SWIDTH    10000    0 
DWIDTH    10    0 
BBX  10  14  0   -2
BITMAP
0000
0000
3F00
6180
6000
6000
3F00
0180
0180
0180
6180
3F00
0000
0000
ENDCHAR
STARTCHAR 84  
ENCODING 84
SWIDTH    10000    0 
DWIDTH    10    0 
BBX  10  14  0   -2
BITMAP
0000
0000
7F80
0C00
0C00
0C00
0C00
0C00
0C00
0C00
0C00
0C00
0000
0000
ENDCHAR
STARTCHAR 85  
ENCODING 85
SWIDTH    10000    0 
DWIDTH    10    0 
BBX  10  14  0   -2
BITMAP
0000
0000
6180
6180
6180
6180
6180
6180
6180
6180
6180
3F00
0000
0000
ENDCHAR
STARTCHAR 86  
ENCODING 86
SWIDTH    10000    0 
DWIDTH    10    0 
BBX  10  14  0   -2
BITMAP
0000
0000
6180
6180
6180
3300
3300
3300
1E00
1E00
1E00
0C00
0000
0000
ENDCHAR
STARTCHAR 87  
ENCODING 87
SWIDTH    10000    0 
DWIDTH    10    0 
BBX  10  14  0   -2
BITMAP
0000
0000
6180
6180
6180
6180
6D80
6D80
7F80
7380
6180
6180
0000
0000
ENDCHAR
STARTCHAR 88  
ENCODING 88
SWIDTH    10000    0 
DWIDTH    10    0 
BBX  10  14  0   -2
BITMAP
0000
0000
6180
6180
3300
1E00
0C00
0C00
1E00
3300
6180
6180
0000
0000
ENDCHAR
STARTCHAR 89  
ENCODING 89
SWIDTH    10000    0 
DWIDTH    10    0 
BBX  10  14  0   -2
BITMAP
0000
0000
6180
6180
3300
1E00
0C00
0C00
0C00
0C00
0C00
0C00
0000
0000
ENDCHAR
STARTCHAR 90  
ENCODING 90
SWIDTH    10000    0 
DWIDTH    10    0 
BBX  10  14  0   -2
BITMAP
0000
0000
7F80
0180
0300
0600
0C00
1800
3000
6000
6000
7F80
0000
0000
ENDCHAR
STARTCHAR 91  
ENCODING 91
SWIDTH    10000    0 
DWIDTH    10    0 
BBX  10  14  0   -2
BITMAP
0000
0000
1F00
1800
1800
1800
1800
1800
1800
1800
1800
1F00
0000
0000
ENDCHAR
STARTCHAR 92  
ENCODING 92
SWIDTH    10000    0 
DWIDTH    10    0 
BBX  10  14  0   -2
BITMAP
0000
0000
6000
3000
3000
1800
0C00
0C00
0600
0300
0300
0180
0000
0000
ENDCHAR
STARTCHAR 93  
ENCODING 93
SWIDTH    10000    0 
DWIDTH    10    0 
BBX  10  14  0   -2
BITMAP
0000
0000
3E00
0600
0600
0600
0600
0600
0600
0600
0600
3E00
0000
0000
ENDCHAR
STARTCHAR 94  
ENCODING 94
SWIDTH    10000    0 
DWIDTH    10    0 
BBX  10  14  0   -2
BITMAP
0000
0000
0C00
1E00
3300
6180
0000
0000
0000
0000
0000
0000
0000
0000
ENDCHAR
STARTCHAR 95  
ENCODING 95
SWIDTH    10000    0 
DWIDTH    10    0 
BBX  10  14  0   -2
BITMAP
0000
0000
0000
0000
0000
0000
0000
0000
0000
0000
0000
0000
FFC0
0000
ENDCHAR
STARTCHAR 96  
ENCODING 96
SWIDTH    10000    0 
DWIDTH    10    0 
BBX  10  14  0   -2
BITMAP
0000
0000
1C00
1C00
1800
0C00
0000
0000
0000
0000
0000
0000
0000
0000
ENDCHAR
STARTCHAR 97  
ENCODING 97
SWIDTH    10000    0 
DWIDTH    10    0 
BBX  10  14  0   -2
BITMAP
0000
0000
0000
0000
0000
3F00
0180
0180
3F80
6180
6380
3D80
0000
0000
ENDCHAR
STARTCHAR 98  
ENCODING 98
SWIDTH    10000    0 
DWIDTH    10    0 
BBX  10  14  0   -2
BITMAP
0000
0000
6000
6000
6000
6F00
7180
6180
6180
6180
7180
6F00
0000
0000
ENDCHAR
STARTCHAR 99  
ENCODING 99
SWIDTH    10000    0 
DWIDTH    10    0 
BBX  10  14  0   -2
BITMAP
0000
0000
0000
0000
0000
3F00
6180
6000
6000
6000
6180
3F00
0000
0000
ENDCHAR
STARTCHAR 100  
ENCODING 100
SWIDTH    10000    0 
DWIDTH    10    0 
BBX  10  14  0   -2
BITMAP
0000
0000
0180
0180
0180
3D80
6380
6180
6180
6180
6380
3D80
0000
0000
ENDCHAR
STARTCHAR 101  
ENCODING 101
SWIDTH    10000    0 
DWIDTH    10    0 
BBX  10  14  0   -2
BITMAP
0000
0000
0000
0000
0000
3F00
6180
6180
7F80
6000
6000
3F00
0000
0000
ENDCHAR
STARTCHAR 102  
ENCODING 102
SWIDTH    10000    0 
DWIDTH    10    0 
BBX  10  14  0   -2
BITMAP
0000
0000
0E00
1900
1800
1800
1800
7E00
1800
1800
1800
1800
0000
0000
ENDCHAR
STARTCHAR 103  
ENCODING 103
SWIDTH    10000    0 
DWIDTH    10    0 
BBX  10  14  0   -2
BITMAP
0000
0000
0000
0000
0000
3D80
6300
6300
6300
3E00
6000
3F00
6180
3F00
ENDCHAR
STARTCHAR 104  
ENCODING 104
SWIDTH    10000    0 
DWIDTH    10    0 
BBX  10  14  0   -2
BITMAP
0000
0000
6000
6000
6000
6F00
7180
6180
6180
6180
6180
6180
0000
0000
ENDCHAR
STARTCHAR 105  
ENCODING 105
SWIDTH    10000    0 
DWIDTH    10    0 
BBX  10  14  0   -2
BITMAP
0000
0000
0000
0C00
0000
1C00
0C00
0C00
0C00
0C00
0C00
3F00
0000
0000
ENDCHAR
STARTCHAR 106  
ENCODING 106
SWIDTH    10000    0 
DWIDTH    10    0 
BBX  10  14  0   -2
BITMAP
0000
0000
0000
0300
0000
0F00
0300
0300
0300
0300
0300
0300
2300
1E00
ENDCHAR
STARTCHAR 107  
ENCODING 107
SWIDTH    10000    0 
DWIDTH    10    0 
BBX  10  14  0   -2
BITMAP
0000
0000
6000
6000
6000
6180
6700
7C00
7000
7C00
6700
6180
0000
0000
ENDCHAR
STARTCHAR 108  
ENCODING 108
SWIDTH    10000    0 
DWIDTH    10    0 
BBX  10  14  0   -2
BITMAP
0000
0000
1C00
0C00
0C00
0C00
0C00
0C00
0C00
0C00
0C00
3F00
0000
0000
ENDCHAR
STARTCHAR 109  
ENCODING 109
SWIDTH    10000    0 
DWIDTH    10    0 
BBX  10  14  0   -2
BITMAP
0000
0000
0000
0000
0000
7300
7F80
7F80
6D80
6180
6180
6180
0000
0000
ENDCHAR
STARTCHAR 110  
ENCODING 110
SWIDTH    10000    0 
DWIDTH    10    0 
BBX  10  14  0   -2
BITMAP
0000
0000
0000
0000
0000
6F00
7180
6180
6180
6180
6180
6180
0000
0000
ENDCHAR
STARTCHAR 111  
ENCODING 111
SWIDTH    10000    0 
DWIDTH    10    0 
BBX  10  14  0   -2
BITMAP
0000
0000
0000
0000
0000
3F00
6180
6180
6180
6180
6180
3F00
0000
0000
ENDCHAR
STARTCHAR 112  
ENCODING 112
SWIDTH    10000    0 
DWIDTH    10    0 
BBX  10  14  0   -2
BITMAP
0000
0000
0000
0000
0000
6F00
7180
6180
6180
6180
7180
6F00
6000
6000
ENDCHAR
STARTCHAR 113  
ENCODING 113
SWIDTH    10000    0 
DWIDTH    10    0 
BBX  10  14  0   -2
BITMAP
0000
0000
0000
0000
0000
3D80
6380
6180
6180
6180
6380
3D80
0180
0180
ENDCHAR
STARTCHAR 114  
ENCODING 114
SWIDTH    10000    0 
DWIDTH    10    0 
BBX  10  14  0   -2
BITMAP
0000
0000
0000
0000
0000
6F00
3980
3180
3000
3000
3000
3000
0000
0000
ENDCHAR
STARTCHAR 115  
ENCODING 115
SWIDTH    10000    0 
DWIDTH    10    0 
BBX  10  14  0   -2
BITMAP
0000
0000
0000
0000
0000
3F00
6180
6000
3F00
0180
6180
3F00
0000
0000
ENDCHAR
STARTCHAR 116  
ENCODING 116
SWIDTH    10000    0 
DWIDTH    10    0 
BBX  10  14  0   -2
BITMAP
0000
0000
0000
1800
1800
7E00
1800
1800
1800
1800
1900
0E00
0000
0000
ENDCHAR
STARTCHAR 117  
ENCODING 117
SWIDTH    10000    0 
DWIDTH    10    0 
BBX  10  14  0   -2
BITMAP
0000
0000
0000
0000
0000
6300
6300
6300
6300
6300
6300
3D80
0000
0000
ENDCHAR
STARTCHAR 118  
ENCODING 118
SWIDTH    10000    0 
DWIDTH    10    0 
BBX  10  14  0   -2
BITMAP
0000
0000
0000
0000
0000
6180
6180
3300
3300
1E00
1E00
0C00
0000
0000
ENDCHAR
STARTCHAR 119  
ENCODING 119
SWIDTH    10000    0 
DWIDTH    10    0 
BBX  10  14  0   -2
BITMAP
0000
0000
0000
0000
0000
6180
6180
6180
6D80
7F80
7F80
3300
0000
0000
ENDCHAR
STARTCHAR 120  
ENCODING 120
SWIDTH    10000    0 
DWIDTH    10    0 
BBX  10  14  0   -2
BITMAP
0000
0000
0000
0000
0000
6180
3300
1E00
0C00
1E00
3300
6180
0000
0000
ENDCHAR
STARTCHAR 121  
ENCODING 121
SWIDTH    10000    0 
DWIDTH    10    0 
BBX  10  14  0   -2
BITMAP
0000
0000
0000
0000
0000
6180
6180
6180
6180
6180
6380
3D80
0180
3F00
ENDCHAR
STARTCHAR 122  
ENCODING 122
SWIDTH    10000    0 
DWIDTH    10    0 
BBX  10  14  0   -2
BITMAP
0000
0000
0000
0000
0000
7F80
0300
0600
0C00
1800
3000
7F80
0000
0000
ENDCHAR
STARTCHAR 123  
ENCODING 123
SWIDTH    10000    0 
DWIDTH    10    0 
BBX  10  14  0   -2
BITMAP
0000
0E00
1800
1800
1800
1800
3000
1800
1800
1800
1800
0E00
0000
0000
ENDCHAR
STARTCHAR 124  
ENCODING 124
SWIDTH    10000    0 
DWIDTH    10    0 
BBX  10  14  0   -2
BITMAP
0000
0000
0C00
0C00
0C00
0C00
0C00
0C00
0C00
0C00
0C00
0C00
0000
0000
ENDCHAR
STARTCHAR 125  
ENCODING 125
SWIDTH    10000    0 
DWIDTH    10    0 
BBX  10  14  0   -2
BITMAP
0000
3800
0C00
0C00
0C00
0C00
0600
0C00
0C00
0C00
0C00
3800
0000
0000
ENDCHAR
STARTCHAR 126  
ENCODING 126
SWIDTH    10000    0 
DWIDTH    10    0 
BBX  10  14  0   -2
BITMAP
0000
0000
0000
0000
0000
3800
4C80
0700
0000
0000
0000
0000
0000
0000
ENDCHAR
STARTCHAR 127  
ENCODING 127
SWIDTH    10000    0 
DWIDTH    10    0 
BBX  10  14  0   -2
BITMAP
5540
AA80
5540
AA80
5540
AA80
5540
AA80
5540
AA80
5540
AA80
5540
AA80
ENDCHAR
STARTCHAR 128  
ENCODING 128
SWIDTH    10000    0 
DWIDTH    10    0 
BBX  10  14  0   -2
BITMAP
0000
0000
0000
0000
0000
0000
0000
0000
0000
0000
0000
0000
0000
0000
ENDCHAR
STARTCHAR 129  
ENCODING 129
SWIDTH    10000    0 
DWIDTH    10    0 
BBX  10  14  0   -2
BITMAP
0000
0000
0000
0000
0000
0000
0000
0000
0000
0000
0000
0000
0000
0000
ENDCHAR
STARTCHAR 130  
ENCODING 130
SWIDTH    10000    0 
DWIDTH    10    0 
BBX  10  14  0   -2
BITMAP
0000
0000
0000
0000
0000
0000
0000
0000
0000
0000
0000
0000
0000
0000
ENDCHAR
STARTCHAR 131  
ENCODING 131
SWIDTH    10000    0 
DWIDTH    10    0 
BBX  10  14  0   -2
BITMAP
0000
0000
0000
0000
0000
0000
0000
0000
0000
0000
0000
0000
0000
0000
ENDCHAR
STARTCHAR 132  
ENCODING 132
SWIDTH    10000    0 
DWIDTH    10    0 
BBX  10  14  0   -2
BITMAP
0000
0000
0000
0000
0000
0000
0000
0000
0000
0000
0000
0000
0000
0000
ENDCHAR
STARTCHAR 133  
ENCODING 133
SWIDTH    10000    0 
DWIDTH    10    0 
BBX  10  14  0   -2
BITMAP
0000
0000
0000
0000
0000
0000
0000
0000
0000
0000
0000
0000
0000
0000
ENDCHAR
STARTCHAR 134  
ENCODING 134
SWIDTH    10000    0 
DWIDTH    10    0 
BBX  10  14  0   -2
BITMAP
0000
0000
0000
0000
0000
0000
0000
0000
0000
0000
0000
0000
0000
0000
ENDCHAR
STARTCHAR 135  
ENCODING 135
SWIDTH    10000    0 
DWIDTH    10    0 
BBX  10  14  0   -2
BITMAP
0000
0000
0000
0000
0000
0000
0000
0000
0000
0000
0000
0000
0000
0000
ENDCHAR
STARTCHAR 136  
ENCODING 136
SWIDTH    10000    0 
DWIDTH    10    0 
BBX  10  14  0   -2
BITMAP
0000
0000
0000
0000
0000
0000
0000
0000
0000
0000
0000
0000
0000
0000
ENDCHAR
STARTCHAR 137  
ENCODING 137
SWIDTH    10000    0 
DWIDTH    10    0 
BBX  10  14  0   -2
BITMAP
0000
0000
0000
0000
0000
0000
0000
0000
0000
0000
0000
0000
0000
0000
ENDCHAR
STARTCHAR 138  
ENCODING 138
SWIDTH    10000    0 
DWIDTH    10    0 
BBX  10  14  0   -2
BITMAP
0000
0000
0000
0000
0000
0000
0000
0000
0000
0000
0000
0000
0000
0000
ENDCHAR
STARTCHAR 139  
ENCODING 139
SWIDTH    10000    0 
DWIDTH    10    0 
BBX  10  14  0   -2
BITMAP
0000
0000
0000
0000
0000
0000
0000
0000
0000
0000
0000
0000
0000
0000
ENDCHAR
STARTCHAR 140  
ENCODING 140
SWIDTH    10000    0 
DWIDTH    10    0 
BBX  10  14  0   -2
BITMAP
0000
0000
0000
0000
0000
0000
0000
0000
0000
0000
0000
0000
0000
0000
ENDCHAR
STARTCHAR 141  
ENCODING 141
SWIDTH    10000    0 
DWIDTH    10    0 
BBX  10  14  0   -2
BITMAP
0000
0000
0000
0000
0000
0000
0000
0000
0000
0000
0000
0000
0000
0000
ENDCHAR
STARTCHAR 142  
ENCODING 142
SWIDTH    10000    0 
DWIDTH    10    0 
BBX  10  14  0   -2
BITMAP
0000
0000
0000
0000
0000
0000
0000
0000
0000
0000
0000
0000
0000
0000
ENDCHAR
STARTCHAR 143  
ENCODING 143
SWIDTH    10000    0 
DWIDTH    10    0 
BBX  10  14  0   -2
BITMAP
0000
0000
0000
0000
0000
0000
0000
0000
0000
0000
0000
0000
0000
0000
ENDCHAR
STARTCHAR 144  
ENCODING 144
SWIDTH    10000    0 
DWIDTH    10    0 
BBX  10  14  0   -2
BITMAP
0000
0000
0000
0000
0000
0000
0000
0000
0000
0000
0000
0000
0000
0000
ENDCHAR
STARTCHAR 145  
ENCODING 145
SWIDTH    10000    0 
DWIDTH    10    0 
BBX  10  14  0   -2
BITMAP
0000
0000
0000
0000
0000
0000
0000
0000
0000
0000
0000
0000
0000
0000
ENDCHAR
STARTCHAR 146  
ENCODING 146
SWIDTH    10000    0 
DWIDTH    10    0 
BBX  10  14  0   -2
BITMAP
0000
0000
0000
0000
0000
0000
0000
0000
0000
0000
0000
0000
0000
0000
ENDCHAR
STARTCHAR 147  
ENCODING 147
SWIDTH    10000    0 
DWIDTH    10    0 
BBX  10  14  0   -2
BITMAP
0000
0000
0000
0000
0000
0000
0000
0000
0000
0000
0000
0000
0000
0000
ENDCHAR
STARTCHAR 148  
ENCODING 148
SWIDTH    10000    0 
DWIDTH    10    0 
BBX  10  14  0   -2
BITMAP
0000
0000
0000
0000
0000
0000
0000
0000
0000
0000
0000
0000
0000
0000
ENDCHAR
STARTCHAR 149  
ENCODING 149
SWIDTH    10000    0 
DWIDTH    10    0 
BBX  10  14  0   -2
BITMAP
0000
0000
0000
0000
0000
0000
0000
0000
0000
0000
0000
0000
0000
0000
ENDCHAR
STARTCHAR 150  
ENCODING 150
SWIDTH    10000    0 
DWIDTH    10    0 
BBX  10  14  0   -2
BITMAP
0000
0000
0000
0000
0000
0000
0000
0000
0000
0000
0000
0000
0000
0000
ENDCHAR
STARTCHAR 151  
ENCODING 151
SWIDTH    10000    0 
DWIDTH    10    0 
BBX  10  14  0   -2
BITMAP
0000
0000
0000
0000
0000
0000
0000
0000
0000
0000
0000
0000
0000
0000
ENDCHAR
STARTCHAR 152  
ENCODING 152
SWIDTH    10000    0 
DWIDTH    10    0 
BBX  10  14  0   -2
BITMAP
0000
0000
0000
0000
0000
0000
0000
0000
0000
0000
0000
0000
0000
0000
ENDCHAR
STARTCHAR 153  
ENCODING 153
SWIDTH    10000    0 
DWIDTH    10    0 
BBX  10  14  0   -2
BITMAP
0000
0000
0000
0000
0000
0000
0000
0000
0000
0000
0000
0000
0000
0000
ENDCHAR
STARTCHAR 154  
ENCODING 154
SWIDTH    10000    0 
DWIDTH    10    0 
BBX  10  14  0   -2
BITMAP
0000
0000
0000
0000
0000
0000
0000
0000
0000
0000
0000
0000
0000
0000
ENDCHAR
STARTCHAR 155  
ENCODING 155
SWIDTH    10000    0 
DWIDTH    10    0 
BBX  10  14  0   -2
BITMAP
0000
0000
0000
0000
0000
0000
0000
0000
0000
0000
0000
0000
0000
0000
ENDCHAR
STARTCHAR 156  
ENCODING 156
SWIDTH    10000    0 
DWIDTH    10    0 
BBX  10  14  0   -2
BITMAP
0000
0000
0000
0000
0000
0000
0000
0000
0000
0000
0000
0000
0000
0000
ENDCHAR
STARTCHAR 157  
ENCODING 157
SWIDTH    10000    0 
DWIDTH    10    0 
BBX  10  14  0   -2
BITMAP
0000
0000
0000
0000
0000
0000
0000
0000
0000
0000
0000
0000
0000
0000
ENDCHAR
STARTCHAR 158  
ENCODING 158
SWIDTH    10000    0 
DWIDTH    10    0 
BBX  10  14  0   -2
BITMAP
0000
0000
0000
0000
0000
0000
0000
0000
0000
0000
0000
0000
0000
0000
ENDCHAR
STARTCHAR 159  
ENCODING 159
SWIDTH    10000    0 
DWIDTH    10    0 
BBX  10  14  0   -2
BITMAP
0000
0000
0000
0000
0000
0000
0000
0000
0000
0000
0000
0000
0000
0000
ENDCHAR
STARTCHAR 160  
ENCODING 160
SWIDTH    10000    0 
DWIDTH    10    0 
BBX  10  14  0   -2
BITMAP
0000
0000
0000
0000
0000
0000
0000
0000
0000
0000
0000
0000
0000
0000
ENDCHAR
STARTCHAR 161  
ENCODING 161
SWIDTH    10000    0 
DWIDTH    10    0 
BBX  10  14  0   -2
BITMAP
0000
0000
0C00
0000
0C00
0C00
0C00
0C00
0C00
0C00
0C00
0C00
0000
0000
ENDCHAR
STARTCHAR 162  
ENCODING 162
SWIDTH    10000    0 
DWIDTH    10    0 
BBX  10  14  0   -2
BITMAP
0000
0000
0E00
1900
3000
7C00
3000
3000
7C00
3000
1900
0E00
0000
0000
ENDCHAR
STARTCHAR 163  
ENCODING 163
SWIDTH    10000    0 
DWIDTH    10    0 
BBX  10  14  0   -2
BITMAP
0000
0000
0000
0E00
1900
1800
1800
7E00
1800
1800
3C00
5B00
3000
0000
ENDCHAR
STARTCHAR 164  
ENCODING 164
SWIDTH    10000    0 
DWIDTH    10    0 
BBX  10  14  0   -2
BITMAP
0000
0000
0000
0000
1400
1400
6B00
1C00
6B00
1400
1400
0000
0000
0000
ENDCHAR
STARTCHAR 165  
ENCODING 165
SWIDTH    10000    0 
DWIDTH    10    0 
BBX  10  14  0   -2
BITMAP
0000
0000
4080
6180
3300
1E00
0C00
3F00
0C00
3F00
0C00
0C00
0000
0000
ENDCHAR
STARTCHAR 166  
ENCODING 166
SWIDTH    10000    0 
DWIDTH    10    0 
BBX  10  14  0   -2
BITMAP
0000
0000
0000
0C00
0C00
0C00
0000
0000
0C00
0C00
0C00
0000
0000
0000
ENDCHAR
STARTCHAR 167  
ENCODING 167
SWIDTH    10000    0 
DWIDTH    10    0 
BBX  10  14  0   -2
BITMAP
0000
1F00
3080
3000
7E00
4700
7080
3E80
0380
0180
4100
3E00
0000
0000
ENDCHAR
STARTCHAR 168  
ENCODING 168
SWIDTH    10000    0 
DWIDTH    10    0 
BBX  10  14  0   -2
BITMAP
0000
0000
0800
0800
0800
0C00
2C00
1A00
1800
0800
0800
0800
0000
0000
ENDCHAR
STARTCHAR 169  
ENCODING 169
SWIDTH    10000    0 
DWIDTH    10    0 
BBX  10  14  0   -2
BITMAP
0000
0000
0000
0000
0000
0400
1800
7F80
0600
0800
0000
0000
0000
0000
ENDCHAR
STARTCHAR 170  
ENCODING 170
SWIDTH    10000    0 
DWIDTH    10    0 
BBX  10  14  0   -2
BITMAP
0000
0000
0100
0200
0600
0C00
1800
0C00
1800
3000
2000
4000
0000
0000
ENDCHAR
STARTCHAR 171  
ENCODING 171
SWIDTH    10000    0 
DWIDTH    10    0 
BBX  10  14  0   -2
BITMAP
0000
0000
4000
2000
3000
1800
0C00
1800
0C00
0600
0200
0100
0000
0000
ENDCHAR
STARTCHAR 172  
ENCODING 172
SWIDTH    10000    0 
DWIDTH    10    0 
BBX  10  14  0   -2
BITMAP
0000
0000
1400
4100
2A00
6B00
9C80
3E00
9C80
6B00
2A00
4100
1400
0000
ENDCHAR
STARTCHAR 173  
ENCODING 173
SWIDTH    10000    0 
DWIDTH    10    0 
BBX  10  14  0   -2
BITMAP
0000
0900
4A00
2400
5480
1B00
CC00
3C00
1780
6400
2A00
4900
0400
0000
ENDCHAR
STARTCHAR 174  
ENCODING 174
SWIDTH    10000    0 
DWIDTH    10    0 
BBX  10  14  0   -2
BITMAP
0000
0000
2200
9480
5500
2A00
DD80
3E00
DD80
2A00
5500
9480
2200
0000
ENDCHAR
STARTCHAR 175  
ENCODING 175
SWIDTH    10000    0 
DWIDTH    10    0 
BBX  10  14  0   -2
BITMAP
0000
0000
0000
0000
0000
0000
0000
0000
0000
0000
0000
0000
0000
0000
ENDCHAR
STARTCHAR 176  
ENCODING 176
SWIDTH    10000    0 
DWIDTH    10    0 
BBX  10  14  0   -2
BITMAP
0000
0000
0000
0000
0000
0000
0000
0000
0000
0000
0000
0000
0000
0000
ENDCHAR
STARTCHAR 177  
ENCODING 177
SWIDTH    10000    0 
DWIDTH    10    0 
BBX  10  14  0   -2
BITMAP
0000
0000
0000
0000
0000
0000
0000
0000
0000
0000
0000
0000
0000
0000
ENDCHAR
STARTCHAR 178  
ENCODING 178
SWIDTH    10000    0 
DWIDTH    10    0 
BBX  10  14  0   -2
BITMAP
0000
0000
0000
0000
0000
0000
0000
0000
0000
0000
0000
0000
0000
0000
ENDCHAR
STARTCHAR 179  
ENCODING 179
SWIDTH    10000    0 
DWIDTH    10    0 
BBX  10  14  0   -2
BITMAP
0000
0000
0000
0000
0000
0000
0000
0000
0000
0000
0000
0000
0000
0000
ENDCHAR
STARTCHAR 180  
ENCODING 180
SWIDTH    10000    0 
DWIDTH    10    0 
BBX  10  14  0   -2
BITMAP
0000
0000
0000
0000
0000
0000
0000
0000
0000
0000
0000
0000
0000
0000
ENDCHAR
STARTCHAR 181  
ENCODING 181
SWIDTH    10000    0 
DWIDTH    10    0 
BBX  10  14  0   -2
BITMAP
0000
0000
0000
0000
0000
0000
0000
0000
0000
0000
0000
0000
0000
0000
ENDCHAR
STARTCHAR 182  
ENCODING 182
SWIDTH    10000    0 
DWIDTH    10    0 
BBX  10  14  0   -2
BITMAP
0000
0000
0000
0000
0000
0000
0000
0000
0000
0000
0000
0000
0000
0000
ENDCHAR
STARTCHAR 183  
ENCODING 183
SWIDTH    10000    0 
DWIDTH    10    0 
BBX  10  14  0   -2
BITMAP
0000
0000
0000
0000
0000
0000
0000
0000
0000
0000
0000
0000
0000
0000
ENDCHAR
STARTCHAR 184  
ENCODING 184
SWIDTH    10000    0 
DWIDTH    10    0 
BBX  10  14  0   -2
BITMAP
0000
0000
0000
0000
0000
0000
0000
0000
0000
0000
0000
0000
0000
0000
ENDCHAR
STARTCHAR 185  
ENCODING 185
SWIDTH    10000    0 
DWIDTH    10    0 
BBX  10  14  0   -2
BITMAP
0000
0000
0000
0000
0000
0000
0000
0000
0000
0000
0000
0000
0000
0000
ENDCHAR
STARTCHAR 186  
ENCODING 186
SWIDTH    10000    0 
DWIDTH    10    0 
BBX  10  14  0   -2
BITMAP
0000
0000
0000
0000
0000
0000
0000
0000
0000
0000
0000
0000
0000
0000
ENDCHAR
STARTCHAR 187  
ENCODING 187
SWIDTH    10000    0 
DWIDTH    10    0 
BBX  10  14  0   -2
BITMAP
0000
0000
0000
0000
0000
0000
0000
0000
0000
0000
0000
0000
0000
0000
ENDCHAR
STARTCHAR 188  
ENCODING 188
SWIDTH    10000    0 
DWIDTH    10    0 
BBX  10  14  0   -2
BITMAP
0000
0000
0000
0000
0000
0000
0000
0000
0000
0000
0000
0000
0000
0000
ENDCHAR
STARTCHAR 189  
ENCODING 189
SWIDTH    10000    0 
DWIDTH    10    0 
BBX  10  14  0   -2
BITMAP
0000
0000
0000
0000
0000
0000
0000
0000
0000
0000
0000
0000
0000
0000
ENDCHAR
STARTCHAR 190  
ENCODING 190
SWIDTH    10000    0 
DWIDTH    10    0 
BBX  10  14  0   -2
BITMAP
0000
0000
0000
0000
0000
0000
0000
0000
0000
0000
0000
0000
0000
0000
ENDCHAR
STARTCHAR 191  
ENCODING 191
SWIDTH    10000    0 
DWIDTH    10    0 
BBX  10  14  0   -2
BITMAP
0000
0000
0C00
0000
0C00
0C00
1800
3000
6000
6300
6300
3E00
0000
0000
ENDCHAR
STARTCHAR 192  
ENCODING 192
SWIDTH    10000    0 
DWIDTH    10    0 
BBX  10  14  0   -2
BITMAP
0800
0400
0000
0C00
1E00
3300
6180
6180
7F80
6180
6180
6180
0000
0000
ENDCHAR
STARTCHAR 193  
ENCODING 193
SWIDTH    10000    0 
DWIDTH    10    0 
BBX  10  14  0   -2
BITMAP
0400
0800
0000
0C00
1E00
3300
6180
6180
7F80
6180
6180
6180
0000
0000
ENDCHAR
STARTCHAR 194  
ENCODING 194
SWIDTH    10000    0 
DWIDTH    10    0 
BBX  10  14  0   -2
BITMAP
0C00
1200
0000
0C00
1E00
3300
6180
6180
7F80
6180
6180
6180
0000
0000
ENDCHAR
STARTCHAR 195  
ENCODING 195
SWIDTH    10000    0 
DWIDTH    10    0 
BBX  10  14  0   -2
BITMAP
0A00
1400
0000
0C00
1E00
3300
6180
6180
7F80
6180
6180
6180
0000
0000
ENDCHAR
STARTCHAR 196  
ENCODING 196
SWIDTH    10000    0 
DWIDTH    10    0 
BBX  10  14  0   -2
BITMAP
0000
1200
0000
0C00
1E00
3300
6180
6180
7F80
6180
6180
6180
0000
0000
ENDCHAR
STARTCHAR 197  
ENCODING 197
SWIDTH    10000    0 
DWIDTH    10    0 
BBX  10  14  0   -2
BITMAP
1200
0C00
0000
0C00
1E00
3300
6180
6180
7F80
6180
6180
6180
0000
0000
ENDCHAR
STARTCHAR 198  
ENCODING 198
SWIDTH    10000    0 
DWIDTH    10    0 
BBX  10  14  0   -2
BITMAP
0000
0000
1F80
3600
6600
6600
7F80
6600
6600
6600
6600
6780
0000
0000
ENDCHAR
STARTCHAR 199  
ENCODING 199
SWIDTH    10000    0 
DWIDTH    10    0 
BBX  10  14  0   -2
BITMAP
0000
0000
1F00
3180
6000
6000
6000
6000
6000
6000
1180
1F00
0400
0C00
ENDCHAR
STARTCHAR 200  
ENCODING 200
SWIDTH    10000    0 
DWIDTH    10    0 
BBX  10  14  0   -2
BITMAP
0800
0400
0000
7F80
6000
6000
6000
7E00
6000
6000
6000
7F80
0000
0000
ENDCHAR
STARTCHAR 201  
ENCODING 201
SWIDTH    10000    0 
DWIDTH    10    0 
BBX  10  14  0   -2
BITMAP
0400
0800
0000
7F80
6000
6000
6000
7E00
6000
6000
6000
7F80
0000
0000
ENDCHAR
STARTCHAR 202  
ENCODING 202
SWIDTH    10000    0 
DWIDTH    10    0 
BBX  10  14  0   -2
BITMAP
0C00
1200
0000
7F80
6000
6000
6000
7E00
6000
6000
6000
7F80
0000
0000
ENDCHAR
STARTCHAR 203  
ENCODING 203
SWIDTH    10000    0 
DWIDTH    10    0 
BBX  10  14  0   -2
BITMAP
0000
1200
0000
7F80
6000
6000
6000
7E00
6000
6000
6000
7F80
0000
0000
ENDCHAR
STARTCHAR 204  
ENCODING 204
SWIDTH    10000    0 
DWIDTH    10    0 
BBX  10  14  0   -2
BITMAP
0800
0400
0000
1E00
0C00
0C00
0C00
0C00
0C00
0C00
0C00
1E00
0000
0000
ENDCHAR
STARTCHAR 205  
ENCODING 205
SWIDTH    10000    0 
DWIDTH    10    0 
BBX  10  14  0   -2
BITMAP
0400
0800
0000
1E00
0C00
0C00
0C00
0C00
0C00
0C00
0C00
1E00
0000
0000
ENDCHAR
STARTCHAR 206  
ENCODING 206
SWIDTH    10000    0 
DWIDTH    10    0 
BBX  10  14  0   -2
BITMAP
0C00
1200
0000
1E00
0C00
0C00
0C00
0C00
0C00
0C00
0C00
1E00
0000
0000
ENDCHAR
STARTCHAR 207  
ENCODING 207
SWIDTH    10000    0 
DWIDTH    10    0 
BBX  10  14  0   -2
BITMAP
0000
1200
0000
1E00
0C00
0C00
0C00
0C00
0C00
0C00
0C00
1E00
0000
0000
ENDCHAR
STARTCHAR 208  
ENCODING 208
SWIDTH    10000    0 
DWIDTH    10    0 
BBX  10  14  0   -2
BITMAP
0000
0000
7E00
6300
6180
6180
6180
FD80
6180
6180
6300
7E00
0000
0000
ENDCHAR
STARTCHAR 209  
ENCODING 209
SWIDTH    10000    0 
DWIDTH    10    0 
BBX  10  14  0   -2
BITMAP
0A00
1400
0000
6180
6180
7180
7980
6D80
6780
6380
6180
6180
0000
0000
ENDCHAR
STARTCHAR 210  
ENCODING 210
SWIDTH    10000    0 
DWIDTH    10    0 
BBX  10  14  0   -2
BITMAP
0800
0400
0000
1E00
3300
6180
6180
6180
6180
6180
3300
1E00
0000
0000
ENDCHAR
STARTCHAR 211  
ENCODING 211
SWIDTH    10000    0 
DWIDTH    10    0 
BBX  10  14  0   -2
BITMAP
0400
0800
0000
1E00
3300
6180
6180
6180
6180
6180
3300
1E00
0000
0000
ENDCHAR
STARTCHAR 212  
ENCODING 212
SWIDTH    10000    0 
DWIDTH    10    0 
BBX  10  14  0   -2
BITMAP
0C00
1200
0000
1E00
3300
6180
6180
6180
6180
6180
3300
1E00
0000
0000
ENDCHAR
STARTCHAR 213  
ENCODING 213
SWIDTH    10000    0 
DWIDTH    10    0 
BBX  10  14  0   -2
BITMAP
0A00
1400
0000
1E00
3300
6180
6180
6180
6180
6180
3300
1E00
0000
0000
ENDCHAR
STARTCHAR 214  
ENCODING 214
SWIDTH    10000    0 
DWIDTH    10    0 
BBX  10  14  0   -2
BITMAP
0000
1200
0000
1E00
3300
6180
6180
6180
6180
6180
3300
1E00
0000
0000
ENDCHAR
STARTCHAR 215  
ENCODING 215
SWIDTH    10000    0 
DWIDTH    10    0 
BBX  10  14  0   -2
BITMAP
0000
0000
0000
0000
0000
0000
0000
0000
0000
0000
0000
0000
0000
0000
ENDCHAR
STARTCHAR 216  
ENCODING 216
SWIDTH    10000    0 
DWIDTH    10    0 
BBX  10  14  0   -2
BITMAP
0000
0000
1E80
3300
6380
6580
6580
6980
6980
7180
3300
5E00
0000
0000
ENDCHAR
STARTCHAR 217  
ENCODING 217
SWIDTH    10000    0 
DWIDTH    10    0 
BBX  10  14  0   -2
BITMAP
0800
0400
0000
6180
6180
6180
6180
6180
6180
6180
6180
3F00
0000
0000
ENDCHAR
STARTCHAR 218  
ENCODING 218
SWIDTH    10000    0 
DWIDTH    10    0 
BBX  10  14  0   -2
BITMAP
0400
0800
0000
6180
6180
6180
6180
6180
6180
6180
6180
3F00
0000
0000
ENDCHAR
STARTCHAR 219  
ENCODING 219
SWIDTH    10000    0 
DWIDTH    10    0 
BBX  10  14  0   -2
BITMAP
0C00
1200
0000
6180
6180
6180
6180
6180
6180
6180
6180
3F00
0000
0000
ENDCHAR
STARTCHAR 220  
ENCODING 220
SWIDTH    10000    0 
DWIDTH    10    0 
BBX  10  14  0   -2
BITMAP
0000
1200
0000
6180
6180
6180
6180
6180
6180
6180
6180
3F00
0000
0000
ENDCHAR
STARTCHAR 221  
ENCODING 221
SWIDTH    10000    0 
DWIDTH    10    0 
BBX  10  14  0   -2
BITMAP
0400
0800
0000
6180
6180
3300
1E00
0C00
0C00
0C00
0C00
0C00
0000
0000
ENDCHAR
STARTCHAR 222  
ENCODING 222
SWIDTH    10000    0 
DWIDTH    10    0 
BBX  10  14  0   -2
BITMAP
0000
6000
6000
6000
7E00
6300
6300
6300
6300
7E00
6000
6000
6000
0000
ENDCHAR
STARTCHAR 223  
ENCODING 223
SWIDTH    10000    0 
DWIDTH    10    0 
BBX  10  14  0   -2
BITMAP
0000
0000
3E00
6300
6300
6600
6C00
6600
6300
6300
6300
6E00
0000
0000
ENDCHAR
STARTCHAR 224  
ENCODING 224
SWIDTH    10000    0 
DWIDTH    10    0 
BBX  10  14  0   -2
BITMAP
0000
0000
0800
0400
0000
3F00
0180
0180
3F80
6180
6380
3D80
0000
0000
ENDCHAR
STARTCHAR 225  
ENCODING 225
SWIDTH    10000    0 
DWIDTH    10    0 
BBX  10  14  0   -2
BITMAP
0000
0000
0400
0800
0000
3F00
0180
0180
3F80
6180
6380
3D80
0000
0000
ENDCHAR
STARTCHAR 226  
ENCODING 226
SWIDTH    10000    0 
DWIDTH    10    0 
BBX  10  14  0   -2
BITMAP
0000
0000
0400
0A00
0000
3F00
0180
0180
3F80
6180
6380
3D80
0000
0000
ENDCHAR
STARTCHAR 227  
ENCODING 227
SWIDTH    10000    0 
DWIDTH    10    0 
BBX  10  14  0   -2
BITMAP
0000
0000
0A00
1400
0000
3F00
0180
0180
3F80
6180
6380
3D80
0000
0000
ENDCHAR
STARTCHAR 228  
ENCODING 228
SWIDTH    10000    0 
DWIDTH    10    0 
BBX  10  14  0   -2
BITMAP
0000
0000
0000
1200
0000
3F00
0180
0180
3F80
6180
6380
3D80
0000
0000
ENDCHAR
STARTCHAR 229  
ENCODING 229
SWIDTH    10000    0 
DWIDTH    10    0 
BBX  10  14  0   -2
BITMAP
0000
0C00
1200
0C00
0000
3F00
0180
0180
3F80
6180
6380
3D80
0000
0000
ENDCHAR
STARTCHAR 230  
ENCODING 230
SWIDTH    10000    0 
DWIDTH    10    0 
BBX  10  14  0   -2
BITMAP
0000
0000
0000
0000
0000
7F00
0D80
3D80
6F80
6C00
6C00
3700
0000
0000
ENDCHAR
STARTCHAR 231  
ENCODING 231
SWIDTH    10000    0 
DWIDTH    10    0 
BBX  10  14  0   -2
BITMAP
0000
0000
0000
0000
0000
3F00
6180
6000
6000
6000
6180
3F00
0400
0C00
ENDCHAR
STARTCHAR 232  
ENCODING 232
SWIDTH    10000    0 
DWIDTH    10    0 
BBX  10  14  0   -2
BITMAP
0000
0000
0800
0400
0000
3F00
6180
6180
7F80
6000
6000
3F00
0000
0000
ENDCHAR
STARTCHAR 233  
ENCODING 233
SWIDTH    10000    0 
DWIDTH    10    0 
BBX  10  14  0   -2
BITMAP
0000
0000
0400
0800
0000
3F00
6180
6180
7F80
6000
6000
3F00
0000
0000
ENDCHAR
STARTCHAR 234  
ENCODING 234
SWIDTH    10000    0 
DWIDTH    10    0 
BBX  10  14  0   -2
BITMAP
0000
0000
0800
1400
0000
3F00
6180
6180
7F80
6000
6000
3F00
0000
0000
ENDCHAR
STARTCHAR 235  
ENCODING 235
SWIDTH    10000    0 
DWIDTH    10    0 
BBX  10  14  0   -2
BITMAP
0000
0000
0000
1200
0000
3F00
6180
6180
7F80
6000
6000
3F00
0000
0000
ENDCHAR
STARTCHAR 236  
ENCODING 236
SWIDTH    10000    0 
DWIDTH    10    0 
BBX  10  14  0   -2
BITMAP
0000
0000
0800
0400
0000
1C00
0C00
0C00
0C00
0C00
0C00
3F00
0000
0000
ENDCHAR
STARTCHAR 237  
ENCODING 237
SWIDTH    10000    0 
DWIDTH    10    0 
BBX  10  14  0   -2
BITMAP
0000
0000
0400
0800
0000
1C00
0C00
0C00
0C00
0C00
0C00
3F00
0000
0000
ENDCHAR
STARTCHAR 238  
ENCODING 238
SWIDTH    10000    0 
DWIDTH    10    0 
BBX  10  14  0   -2
BITMAP
0000
0000
0800
1400
0000
1C00
0C00
0C00
0C00
0C00
0C00
3F00
0000
0000
ENDCHAR
STARTCHAR 239  
ENCODING 239
SWIDTH    10000    0 
DWIDTH    10    0 
BBX  10  14  0   -2
BITMAP
0000
0000
0000
1400
0000
1C00
0C00
0C00
0C00
0C00
0C00
3F00
0000
0000
ENDCHAR
STARTCHAR 240  
ENCODING 240
SWIDTH    10000    0 
DWIDTH    10    0 
BBX  10  14  0   -2
BITMAP
0000
0A00
0400
0A00
0100
3F00
6180
6180
6180
6180
6180
3F00
0000
0000
ENDCHAR
STARTCHAR 241  
ENCODING 241
SWIDTH    10000    0 
DWIDTH    10    0 
BBX  10  14  0   -2
BITMAP
0000
0000
0A00
1400
0000
6F00
7180
6180
6180
6180
6180
6180
0000
0000
ENDCHAR
STARTCHAR 242  
ENCODING 242
SWIDTH    10000    0 
DWIDTH    10    0 
BBX  10  14  0   -2
BITMAP
0000
0000
0800
0400
0000
3F00
6180
6180
6180
6180
6180
3F00
0000
0000
ENDCHAR
STARTCHAR 243  
ENCODING 243
SWIDTH    10000    0 
DWIDTH    10    0 
BBX  10  14  0   -2
BITMAP
0000
0000
0400
0800
0000
3F00
6180
6180
6180
6180
6180
3F00
0000
0000
ENDCHAR
STARTCHAR 244  
ENCODING 244
SWIDTH    10000    0 
DWIDTH    10    0 
BBX  10  14  0   -2
BITMAP
0000
0000
0C00
1200
0000
3F00
6180
6180
6180
6180
6180
3F00
0000
0000
ENDCHAR
STARTCHAR 245  
ENCODING 245
SWIDTH    10000    0 
DWIDTH    10    0 
BBX  10  14  0   -2
BITMAP
0000
0000
0A00
1400
0000
3F00
6180
6180
6180
6180
6180
3F00
0000
0000
ENDCHAR
STARTCHAR 246  
ENCODING 246
SWIDTH    10000    0 
DWIDTH    10    0 
BBX  10  14  0   -2
BITMAP
0000
0000
0000
1200
0000
3F00
6180
6180
6180
6180
6180
3F00
0000
0000
ENDCHAR
STARTCHAR 247  
ENCODING 247
SWIDTH    10000    0 
DWIDTH    10    0 
BBX  10  14  0   -2
BITMAP
0000
0000
0000
0000
0000
0000
0000
0000
0000
0000
0000
0000
0000
0000
ENDCHAR
STARTCHAR 248  
ENCODING 248
SWIDTH    10000    0 
DWIDTH    10    0 
BBX  10  14  0   -2
BITMAP
0000
0000
0000
0000
0080
3F00
6380
6580
6D80
6980
7180
3F00
4000
0000
ENDCHAR
STARTCHAR 249  
ENCODING 249
SWIDTH    10000    0 
DWIDTH    10    0 
BBX  10  14  0   -2
BITMAP
0000
0000
1000
0800
0000
6300
6300
6300
6300
6300
6300
3D80
0000
0000
ENDCHAR
STARTCHAR 250  
ENCODING 250
SWIDTH    10000    0 
DWIDTH    10    0 
BBX  10  14  0   -2
BITMAP
0000
0000
0400
0800
0000
6300
6300
6300
6300
6300
6300
3D80
0000
0000
ENDCHAR
STARTCHAR 251  
ENCODING 251
SWIDTH    10000    0 
DWIDTH    10    0 
BBX  10  14  0   -2
BITMAP
0000
0000
0800
1400
0000
6300
6300
6300
6300
6300
6300
3D80
0000
0000
ENDCHAR
STARTCHAR 252  
ENCODING 252
SWIDTH    10000    0 
DWIDTH    10    0 
BBX  10  14  0   -2
BITMAP
0000
0000
0000
2200
0000
6300
6300
6300
6300
6300
6300
3D80
0000
0000
ENDCHAR
STARTCHAR 253  
ENCODING 253
SWIDTH    10000    0 
DWIDTH    10    0 
BBX  10  14  0   -2
BITMAP
0000
0000
0400
0800
0000
6180
6180
6180
6180
6180
6380
3D80
0180
3F00
ENDCHAR
STARTCHAR 254  
ENCODING 254
SWIDTH    10000    0 
DWIDTH    10    0 
BBX  10  14  0   -2
BITMAP
0000
0000
0000
0000
6000
6000
6000
7C00
6200
6200
6200
7C00
6000
6000
ENDCHAR
STARTCHAR 255  
ENCODING 255
SWIDTH    10000    0 
DWIDTH    10    0 
BBX  10  14  0   -2
BITMAP
0000
0000
0000
2100
0000
6180
6180
6180
6180
6180
6380
3D80
0180
3F00
ENDCHAR
ENDFONT
